<?xml version="1.0" encoding="UTF-8"?>
<svg xmlns="http://www.w3.org/2000/svg" viewBox="0 0 800 450" width="800" height="450">
  <defs>
    <filter id="glow" x="-20%" y="-20%" width="140%" height="140%">
      <feGaussianBlur stdDeviation="4" result="blur"/>
      <feFlood flood-color="#D4AF37" flood-opacity="0.4"/>
      <feComposite in2="blur" operator="in"/>
      <feMerge><feMergeNode/><feMergeNode in="SourceGraphic"/></feMerge>
    </filter>
    
  </defs>
  <rect width="100%" height="100%" fill="#121E31"/>
  <rect x="350" y="195" width="100" height="60" rx="12" ry="12" fill="#2C3E50" stroke="#8B6914" stroke-width="2"/><rect x="68" y="100" width="104" height="40" rx="8" ry="8" fill="#2C3E50" stroke="#D4AF37" stroke-width="2"/><text x="120" y="125" fill="#EAECEE" font-family="system-ui, sans-serif" font-size="13" text-anchor="middle" font-weight="500">Chatbot</text><line x1="400" y1="225" x2="120" y2="120" stroke="#D4AF37" stroke-width="1" stroke-dasharray="4 2"/><rect x="628" y="100" width="104" height="40" rx="8" ry="8" fill="#2C3E50" stroke="#D4AF37" stroke-width="2"/><text x="680" y="125" fill="#EAECEE" font-family="system-ui, sans-serif" font-size="13" text-anchor="middle" font-weight="500">Lead Gen</text><line x1="400" y1="225" x2="680" y2="120" stroke="#D4AF37" stroke-width="1" stroke-dasharray="4 2"/><rect x="68" y="330" width="104" height="40" rx="8" ry="8" fill="#2C3E50" stroke="#D4AF37" stroke-width="2"/><text x="120" y="355" fill="#EAECEE" font-family="system-ui, sans-serif" font-size="13" text-anchor="middle" font-weight="500">Eval</text><line x1="400" y1="225" x2="120" y2="350" stroke="#D4AF37" stroke-width="1" stroke-dasharray="4 2"/><rect x="628" y="330" width="104" height="40" rx="8" ry="8" fill="#2C3E50" stroke="#D4AF37" stroke-width="2"/><text x="680" y="355" fill="#EAECEE" font-family="system-ui, sans-serif" font-size="13" text-anchor="middle" font-weight="500">Diagnostic</text><line x1="400" y1="225" x2="680" y2="350" stroke="#D4AF37" stroke-width="1" stroke-dasharray="4 2"/><rect x="348" y="40" width="104" height="40" rx="8" ry="8" fill="#2C3E50" stroke="#D4AF37" stroke-width="2"/><text x="400" y="65" fill="#EAECEE" font-family="system-ui, sans-serif" font-size="13" text-anchor="middle" font-weight="500">n8n</text><line x1="400" y1="225" x2="400" y2="60" stroke="#D4AF37" stroke-width="1" stroke-dasharray="4 2"/><text x="400" y="410" fill="#F5D060" font-family="system-ui, sans-serif" font-size="16" text-anchor="middle" font-weight="500">Whitelabel · Download · Spin off into your stack</text>
</svg>