<?xml version="1.0" encoding="UTF-8"?>
<svg xmlns="http://www.w3.org/2000/svg" viewBox="0 0 160 160" role="img" aria-labelledby="title desc">
  <title id="title">Illustrated avatar for Sundiata Keita, Legacy Institution Builder</title>
  <desc id="desc">Stylized animated-style portrait mark with Mali institution cue; historically inspired without claiming exact photographic likeness.</desc>
  <defs>
    <radialGradient id="halo" cx="32%" cy="18%" r="75%">
      <stop offset="0%" stop-color="#82f0bd" stop-opacity="0.55"/>
      <stop offset="48%" stop-color="#40c58a" stop-opacity="0.15"/>
      <stop offset="100%" stop-color="#07111f" stop-opacity="1"/>
    </radialGradient>
    <linearGradient id="body" x1="18" y1="16" x2="142" y2="152" gradientUnits="userSpaceOnUse">
      <stop offset="0%" stop-color="#123326"/>
      <stop offset="62%" stop-color="#0d1b2d"/>
      <stop offset="100%" stop-color="#050b14"/>
    </linearGradient>
    <filter id="softGlow" x="-25%" y="-25%" width="150%" height="150%">
      <feGaussianBlur stdDeviation="4" result="blur"/>
      <feColorMatrix in="blur" type="matrix" values="1 0 0 0 0 0 0.82 0 0 0 0 0 0.38 0 0 0 0 0 0.45 0"/>
      <feMerge>
        <feMergeNode/>
        <feMergeNode in="SourceGraphic"/>
      </feMerge>
    </filter>
  </defs>
  <rect width="160" height="160" rx="32" fill="url(#body)"/>
  <rect x="8" y="8" width="144" height="144" rx="27" fill="url(#halo)" opacity="0.88"/>
  <path d="M28 139c7-32 24-50 52-50s45 18 52 50" fill="#14243a" opacity="0.98"/>
  <path d="M45 139c6-20 18-31 35-31s29 11 35 31" fill="#123326" opacity="0.65"/>
  <ellipse cx="80" cy="70" rx="34" ry="38" fill="#111d2f"/>
  <path d="M39 54c7-19 20-30 41-30s34 11 41 30c-12-6-26-9-41-9s-29 3-41 9Z" fill="#40c58a" opacity="0.72"/>
  <path d="M43 59c13-11 25-17 37-17s24 6 37 17" fill="none" stroke="#82f0bd" stroke-width="5" stroke-linecap="round" opacity="0.65"/>
  <circle cx="64" cy="71" r="3.7" fill="#82f0bd" opacity="0.88"/>
  <circle cx="96" cy="71" r="3.7" fill="#82f0bd" opacity="0.88"/>
  <path d="M36 89c14 8 28 8 42 0" fill="none" stroke="#82f0bd" stroke-width="4" stroke-linecap="round" opacity="0.65"/>
  <path d="M65 83c10 8 20 8 30 0" fill="none" stroke="#82f0bd" stroke-width="4" stroke-linecap="round" opacity="0.58"/>
  <path d="M39 112c14 11 28 17 41 17s27-6 41-17" fill="none" stroke="#40c58a" stroke-width="3" opacity="0.38"/>
  <circle cx="122" cy="37" r="21" fill="#07111f" stroke="#40c58a" stroke-width="3" filter="url(#softGlow)"/>
  <text x="122" y="44" text-anchor="middle" font-family="Arial, Helvetica, sans-serif" font-size="21" font-weight="800" fill="#82f0bd">A</text>
  <rect x="18" y="120" width="45" height="24" rx="12" fill="#020817" opacity="0.72"/>
  <text x="40.5" y="137" text-anchor="middle" font-family="Arial, Helvetica, sans-serif" font-size="14" font-weight="800" letter-spacing="1" fill="#82f0bd">SK</text>
  <rect x="8" y="8" width="144" height="144" rx="27" fill="none" stroke="#40c58a" stroke-opacity="0.64" stroke-width="2"/>
</svg>
