<?xml version="1.0" encoding="UTF-8"?>
<svg xmlns="http://www.w3.org/2000/svg" viewBox="0 0 160 160" role="img" aria-labelledby="title desc">
  <title id="title">Illustrated avatar for unassigned agent work</title>
  <desc id="desc">Fallback stylized animated-style portrait mark for unassigned Agent Ops work.</desc>
  <rect width="160" height="160" rx="32" fill="#07111f"/>
  <rect x="8" y="8" width="144" height="144" rx="27" fill="#102c3b" opacity="0.88"/>
  <circle cx="80" cy="70" r="36" fill="#111d2f"/>
  <path d="M35 57c9-22 23-34 45-34s36 12 45 34c-15-8-30-12-45-12s-30 4-45 12Z" fill="#4db7e8" opacity="0.58"/>
  <circle cx="64" cy="72" r="4" fill="#9ce3ff" opacity="0.8"/>
  <circle cx="96" cy="72" r="4" fill="#9ce3ff" opacity="0.8"/>
  <path d="M65 84c10 8 20 8 30 0" fill="none" stroke="#9ce3ff" stroke-width="4" stroke-linecap="round" opacity="0.58"/>
  <circle cx="122" cy="37" r="21" fill="#07111f" stroke="#4db7e8" stroke-width="3"/>
  <text x="122" y="44" text-anchor="middle" font-family="Arial, Helvetica, sans-serif" font-size="21" font-weight="800" fill="#9ce3ff">N</text>
  <rect x="18" y="120" width="45" height="24" rx="12" fill="#020817" opacity="0.72"/>
  <text x="40.5" y="137" text-anchor="middle" font-family="Arial, Helvetica, sans-serif" font-size="14" font-weight="800" letter-spacing="1" fill="#9ce3ff">AI</text>
  <rect x="8" y="8" width="144" height="144" rx="27" fill="none" stroke="#4db7e8" stroke-opacity="0.64" stroke-width="2"/>
</svg>
